<svg width="12" height="15" viewBox="0 0 12 15" fill="none" xmlns="http://www.w3.org/2000/svg">
<path fill-rule="evenodd" clip-rule="evenodd" d="M0 6.53776C0 3.31786 2.69072 0.715332 5.94541 0.715332C9.20928 0.715332 11.9 3.31786 11.9 6.53776C11.9 8.16032 11.3099 9.66667 10.3387 10.9434C9.26716 12.3518 7.94651 13.5789 6.45998 14.542C6.11976 14.7646 5.81271 14.7814 5.43932 14.542C3.94432 13.5789 2.62366 12.3518 1.56135 10.9434C0.589388 9.66667 0 8.16032 0 6.53776ZM3.98598 6.71893C3.98598 7.7976 4.86618 8.64598 5.94543 8.64598C7.02538 8.64598 7.91405 7.7976 7.91405 6.71893C7.91405 5.64866 7.02538 4.75899 5.94543 4.75899C4.86618 4.75899 3.98598 5.64866 3.98598 6.71893Z" fill="#2F4C73"/>
</svg>
