<svg width="42" height="42" viewBox="0 0 42 42" fill="none" xmlns="http://www.w3.org/2000/svg">
<path d="M21.0001 0C9.44384 0 0 9.44384 0 21.0001C0 22.7398 0.186392 24.3552 0.621305 25.9705L3.6657 27.5859C3.04439 28.6422 2.79587 29.6362 2.98226 30.5682C3.0444 31.5623 3.6657 32.3079 4.65979 32.9292C5.65388 33.5505 6.64796 33.6747 7.51779 33.3641C8.44975 33.0534 9.19532 32.37 9.81662 31.3138L20.2545 14.0415L24.9143 6.39944L27.2753 18.3285L24.2309 16.4646L13.793 33.7369C12.4882 35.8493 10.8107 37.154 8.7604 37.6511C8.57401 37.7132 8.38762 37.7132 8.26336 37.7132C9.94088 38.9558 11.8048 40.012 13.793 40.7576L24.7901 21.5593L27.3374 26.5297L18.5149 41.876C19.3226 42.0002 20.1924 42.0002 21.0001 42.0002C21.3729 42.0002 21.7457 42.0002 22.1185 42.0002L29.2635 29.512L31.9351 34.2339L28.2073 40.7576C36.2842 37.8375 42.0002 30.0712 42.0002 21.0001C42.0624 9.44384 32.6185 0 21.0001 0Z" fill="#0094FA"/>
</svg>
