<svg width="128" height="14" viewBox="0 0 128 14" fill="none" xmlns="http://www.w3.org/2000/svg">
<path d="M14 7C14 3.134 10.866 0 7 0C3.134 0 0 3.134 0 7C0 10.4938 2.55979 13.3898 5.90625 13.915V9.02344H4.12891V7H5.90625V5.45781C5.90625 3.70344 6.95133 2.73438 8.55025 2.73438C9.31588 2.73438 10.1172 2.87109 10.1172 2.87109V4.59375H9.23453C8.365 4.59375 8.09375 5.13338 8.09375 5.6875V7H10.0352L9.7248 9.02344H8.09375V13.915C11.4402 13.3898 14 10.4938 14 7Z" fill="#2F4C73"/>
<g clip-path="url(#clip0_0_1)">
<path d="M42.4043 12.6874C47.686 12.6874 50.5757 8.31052 50.5757 4.51602C50.5757 4.39298 50.5729 4.2672 50.5675 4.14415C51.1296 3.73762 51.6147 3.23409 52 2.6572C51.4765 2.89012 50.9206 3.04225 50.3514 3.10837C50.9507 2.74914 51.3995 2.1848 51.6145 1.51997C51.0507 1.8541 50.4341 2.0898 49.7912 2.21696C49.358 1.75668 48.7852 1.45192 48.1615 1.3498C47.5377 1.24768 46.8977 1.35389 46.3403 1.652C45.783 1.95011 45.3394 2.42352 45.0781 2.99904C44.8168 3.57456 44.7523 4.22013 44.8947 4.83595C43.7531 4.77866 42.6363 4.4821 41.6167 3.9655C40.597 3.44889 39.6973 2.72378 38.9759 1.83716C38.6092 2.46933 38.497 3.2174 38.6621 3.92933C38.8272 4.64125 39.2571 5.26362 39.8646 5.66993C39.4085 5.65545 38.9625 5.53267 38.5633 5.31173V5.34727C38.5629 6.01069 38.7922 6.65378 39.2123 7.16722C39.6325 7.68066 40.2174 8.03277 40.8678 8.16368C40.4454 8.27926 40.002 8.2961 39.572 8.2129C39.7555 8.78344 40.1126 9.28246 40.5934 9.6403C41.0741 9.99814 41.6547 10.197 42.2539 10.209C41.2366 11.0081 39.9799 11.4415 38.6863 11.4395C38.4569 11.4391 38.2277 11.425 38 11.3974C39.3142 12.2405 40.8429 12.6882 42.4043 12.6874Z" fill="#2F4C73"/>
</g>
<path d="M83 1.26055C84.8703 1.26055 85.0918 1.26875 85.8273 1.30156C86.5109 1.33164 86.8801 1.44648 87.1262 1.54219C87.4516 1.66797 87.6867 1.82109 87.9301 2.06445C88.1762 2.31055 88.3266 2.54297 88.4523 2.86836C88.548 3.11445 88.6629 3.48633 88.693 4.16719C88.7258 4.90547 88.734 5.12695 88.734 6.99453C88.734 8.86484 88.7258 9.08633 88.693 9.82188C88.6629 10.5055 88.548 10.8746 88.4523 11.1207C88.3266 11.4461 88.1734 11.6813 87.9301 11.9246C87.684 12.1707 87.4516 12.3211 87.1262 12.4469C86.8801 12.5426 86.5082 12.6574 85.8273 12.6875C85.0891 12.7203 84.8676 12.7285 83 12.7285C81.1297 12.7285 80.9082 12.7203 80.1727 12.6875C79.4891 12.6574 79.1199 12.5426 78.8738 12.4469C78.5484 12.3211 78.3133 12.168 78.0699 11.9246C77.8238 11.6785 77.6734 11.4461 77.5477 11.1207C77.452 10.8746 77.3371 10.5027 77.307 9.82188C77.2742 9.0836 77.266 8.86211 77.266 6.99453C77.266 5.12422 77.2742 4.90273 77.307 4.16719C77.3371 3.48359 77.452 3.11445 77.5477 2.86836C77.6734 2.54297 77.8266 2.30781 78.0699 2.06445C78.316 1.81836 78.5484 1.66797 78.8738 1.54219C79.1199 1.44648 79.4918 1.33164 80.1727 1.30156C80.9082 1.26875 81.1297 1.26055 83 1.26055ZM83 0C81.0996 0 80.8617 0.00820312 80.1152 0.0410156C79.3715 0.0738281 78.8602 0.194141 78.4172 0.366406C77.9551 0.546875 77.5641 0.784766 77.1758 1.17578C76.7848 1.56406 76.5469 1.95508 76.3664 2.41445C76.1941 2.86016 76.0738 3.36875 76.041 4.1125C76.0082 4.86172 76 5.09961 76 7C76 8.90039 76.0082 9.13828 76.041 9.88477C76.0738 10.6285 76.1941 11.1398 76.3664 11.5828C76.5469 12.0449 76.7848 12.4359 77.1758 12.8242C77.5641 13.2125 77.9551 13.4531 78.4145 13.6309C78.8602 13.8031 79.3688 13.9234 80.1125 13.9563C80.859 13.9891 81.0969 13.9973 82.9973 13.9973C84.8977 13.9973 85.1355 13.9891 85.882 13.9563C86.6258 13.9234 87.1371 13.8031 87.5801 13.6309C88.0395 13.4531 88.4305 13.2125 88.8188 12.8242C89.207 12.4359 89.4477 12.0449 89.6254 11.5855C89.7977 11.1398 89.918 10.6313 89.9508 9.8875C89.9836 9.14102 89.9918 8.90313 89.9918 7.00274C89.9918 5.10234 89.9836 4.86445 89.9508 4.11797C89.918 3.37422 89.7977 2.86289 89.6254 2.41992C89.4531 1.95508 89.2152 1.56406 88.8242 1.17578C88.4359 0.7875 88.0449 0.546875 87.5855 0.369141C87.1398 0.196875 86.6313 0.0765625 85.8875 0.04375C85.1383 0.00820313 84.9004 0 83 0Z" fill="#2F4C73"/>
<path d="M83 3.4043C81.0148 3.4043 79.4043 5.01484 79.4043 7C79.4043 8.98516 81.0148 10.5957 83 10.5957C84.9852 10.5957 86.5957 8.98516 86.5957 7C86.5957 5.01484 84.9852 3.4043 83 3.4043ZM83 9.33242C81.7121 9.33242 80.6676 8.28789 80.6676 7C80.6676 5.71211 81.7121 4.66758 83 4.66758C84.2879 4.66758 85.3324 5.71211 85.3324 7C85.3324 8.28789 84.2879 9.33242 83 9.33242Z" fill="#2F4C73"/>
<path d="M87.5773 3.26182C87.5773 3.72666 87.2 4.10127 86.7379 4.10127C86.273 4.10127 85.8984 3.72393 85.8984 3.26182C85.8984 2.79697 86.2758 2.42236 86.7379 2.42236C87.2 2.42236 87.5773 2.79971 87.5773 3.26182Z" fill="#2F4C73"/>
<path d="M126.964 0H115.034C114.462 0 114 0.451172 114 1.00898V12.9883C114 13.5461 114.462 14 115.034 14H126.964C127.535 14 128 13.5461 128 12.991V1.00898C128 0.451172 127.535 0 126.964 0ZM118.154 11.9301H116.075V5.24726H118.154V11.9301ZM117.114 4.33672C116.447 4.33672 115.909 3.79805 115.909 3.13359C115.909 2.46914 116.447 1.93047 117.114 1.93047C117.779 1.93047 118.318 2.46914 118.318 3.13359C118.318 3.79531 117.779 4.33672 117.114 4.33672ZM125.93 11.9301H123.855V8.68164C123.855 7.90781 123.841 6.90977 122.775 6.90977C121.695 6.90977 121.53 7.75469 121.53 8.62695V11.9301H119.458V5.24726H121.448V6.16055H121.476C121.752 5.63555 122.43 5.08047 123.439 5.08047C125.542 5.08047 125.93 6.46406 125.93 8.26328V11.9301Z" fill="#2F4C73"/>
<defs>
<clipPath id="clip0_0_1">
<rect width="14" height="14" fill="white" transform="translate(38)"/>
</clipPath>
</defs>
</svg>
